<svg version="1.2" xmlns="http://www.w3.org/2000/svg" viewBox="0 0 20 20" width="20" height="20">
	<title>VOTE</title>
	<style>
		.s0 { fill: #000000 } 
	</style>
	<path id="Layer" fill-rule="evenodd" class="s0" d="m20 13.9v3.8c0 0.7-0.4 1.3-1 1.3h-18c-0.6 0-1-0.6-1-1.3v-3.8c0-0.8 0.4-1.3 1-1.3h2v2.5h-0.7c-0.2 0-0.3 0.2-0.3 0.4v0.6c0 0.2 0.1 0.3 0.3 0.3h15.4c0.2 0 0.3-0.1 0.3-0.3v-0.6c0-0.2-0.1-0.4-0.3-0.4h-0.7v-2.5h2c0.6 0 1 0.5 1 1.3zm-16 1.2v-12.8c0-0.7 0.5-1.3 1-1.3h10c0.5 0 1 0.6 1 1.3v12.8zm2.6-6.7l2.3 3c0.1 0.2 0.4 0.2 0.5 0l4-5.1c0.1-0.1 0.1-0.4 0-0.6l-0.8-1c-0.1-0.2-0.3-0.2-0.5 0l-2.9 3.8l-1.3-1.7c-0.2-0.2-0.4-0.2-0.5 0l-0.8 1c-0.1 0.2-0.1 0.5 0 0.6z" />
</svg>